<?xml version="1.0" encoding="UTF-8"?>
<svg id="Layer_1" xmlns="http://www.w3.org/2000/svg" xmlns:xlink="http://www.w3.org/1999/xlink" version="1.1" viewBox="0 0 1500 340">
  <!-- Generator: Adobe Illustrator 29.5.1, SVG Export Plug-In . SVG Version: 2.1.0 Build 141)  -->
  <defs>
    <style>
      .st0 {
        fill: url(#linear-gradient2);
      }

      .st1 {
        fill: url(#linear-gradient1);
      }

      .st2 {
        fill: url(#linear-gradient3);
      }

      .st3 {
        fill: url(#linear-gradient5);
      }

      .st4 {
        fill: url(#linear-gradient4);
      }

      .st5 {
        fill: url(#linear-gradient);
      }

      .st6 {
        fill: #3b82f6;
      }
    </style>
    <linearGradient id="linear-gradient" x1="-1216.6" y1="84.3" x2="-1002.8" y2="454.6" gradientTransform="translate(-869.9 339.9) rotate(-180)" gradientUnits="userSpaceOnUse">
      <stop offset="0" stop-color="#03c"/>
      <stop offset=".4" stop-color="#3b82f6"/>
      <stop offset="1" stop-color="#fff"/>
    </linearGradient>
    <linearGradient id="linear-gradient1" x1="-1224.8" y1="89" x2="-1086.4" y2="328.8" gradientTransform="translate(-869.9 339.9) rotate(-180)" gradientUnits="userSpaceOnUse">
      <stop offset="0" stop-color="#03c"/>
      <stop offset=".4" stop-color="#3b82f6"/>
      <stop offset="1" stop-color="#fff"/>
    </linearGradient>
    <linearGradient id="linear-gradient2" x1="-1073.5" y1="-13.6" x2="-1073.5" y2="741.2" gradientTransform="translate(-869.9 339.9) rotate(-180)" gradientUnits="userSpaceOnUse">
      <stop offset="0" stop-color="#03c"/>
      <stop offset=".4" stop-color="#3b82f6"/>
      <stop offset="1" stop-color="#fff"/>
    </linearGradient>
    <linearGradient id="linear-gradient3" x1="-1073.5" y1="-13.6" x2="-1073.5" y2="618.8" gradientTransform="translate(-869.9 339.9) rotate(-180)" gradientUnits="userSpaceOnUse">
      <stop offset="0" stop-color="#03c"/>
      <stop offset=".4" stop-color="#3b82f6"/>
      <stop offset="1" stop-color="#fff"/>
    </linearGradient>
    <linearGradient id="linear-gradient4" x1="-1230.1" y1="-13.6" x2="-1230.1" y2="741.2" gradientTransform="translate(-869.9 339.9) rotate(-180)" gradientUnits="userSpaceOnUse">
      <stop offset="0" stop-color="#03c"/>
      <stop offset=".4" stop-color="#3b82f6"/>
      <stop offset="1" stop-color="#fff"/>
    </linearGradient>
    <linearGradient id="linear-gradient5" x1="-1230.1" y1="-13.6" x2="-1230.1" y2="618.8" gradientTransform="translate(-869.9 339.9) rotate(-180)" gradientUnits="userSpaceOnUse">
      <stop offset="0" stop-color="#03c"/>
      <stop offset=".4" stop-color="#3b82f6"/>
      <stop offset="1" stop-color="#fff"/>
    </linearGradient>
  </defs>
  <g>
    <path class="st6" d="M457.4,256.4c-13-6.2-23.2-14.6-30.9-25.2-7.6-10.6-11.5-22.4-11.5-35.5v-47.3c0-13.8,3.9-26.4,11.6-37.9s18.2-20.4,31.3-26.8,27.1-9.6,42.2-9.6,28.4,3,40.9,9.1c12.5,6.1,22.3,14.6,29.4,25.5,7.2,11,10.7,23.4,10.7,37.2v20c0,5.9-2.2,10.9-6.7,15-4.4,4.1-10.1,6.1-17,6.1h-93.2v5.2c0,9.9,3,17.9,9.1,24.2s15,9.4,26.8,9.4,20.1-2.5,25.5-7.6c5.4-5.1,8.1-11.4,8.1-19.1,4.9-.5,8.6-.7,11.1-.7,10.1,0,17.9,2.1,23.3,6.3,5.4,4.2,8.1,10.4,8.1,18.5s-3.3,13.3-10,20-15.8,12.1-27.6,16.3c-11.7,4.2-24.7,6.3-39,6.3s-29.4-3.1-42.4-9.2h0ZM535.3,151v-5.2c0-9.9-3.3-17.7-9.8-23.5-6.5-5.8-15.1-8.7-25.7-8.7s-19.2,2.9-25.7,8.7c-6.5,5.8-9.8,13.6-9.8,23.5v5.2h71,0Z"/>
    <path class="st6" d="M612.6,263.2c-5.4-1.6-9.8-4.1-13-7.6l64.4-88.4-58.8-85.8c2-2.2,5.8-4,11.5-5.4,5.7-1.3,10.7-2,15.2-2,14.3,0,23.9,3.9,28.9,11.8l30.3,48.8-7.8,10.7,3,2.2,40-61.8c5.2-7.9,15.4-11.8,30.7-11.8s9.2.7,14.2,2c5,1.4,8.6,3.1,10.5,5.4l-59.2,85.8,64.7,88.4c-3.2,3.5-7.3,6-12.2,7.6-4.9,1.6-9.9,2.4-14.8,2.4s-10.8-1-16.1-3c-5.3-2-9.1-4.4-11.3-7.4l-39.6-58.8-39.2,58.8c-2.2,3.2-5.7,5.7-10.4,7.6-4.7,1.9-9.8,2.8-15.2,2.8s-10.5-.8-15.9-2.4h0Z"/>
    <path class="st6" d="M848.6,256.8c-13.3-5.9-23.8-14.1-31.5-24.6-7.7-10.5-11.5-22.4-11.5-35.7v-49.2c0-13.6,3.7-26,11.1-37.2,7.4-11.2,17.8-20,31.1-26.5s28.4-9.6,45.1-9.6,31.8,3.2,45.1,9.6c13.3,6.4,23.7,15.2,31.1,26.4,7.4,11.2,11.1,23.6,11.1,37.2v49.2c0,13.3-3.8,25.2-11.5,35.7-7.7,10.5-18.1,18.7-31.5,24.6s-28.1,8.9-44.4,8.9-31.1-3-44.4-8.9h0ZM920,214.2c6.4-5.2,9.6-12.3,9.6-21.5v-42.9c0-9.6-3.3-17.4-9.8-23.3-6.5-5.9-15.5-8.9-26.8-8.9s-20.3,3-26.8,8.9c-6.5,5.9-9.8,13.7-9.8,23.3v42.9c0,9.1,3.2,16.3,9.6,21.5,6.4,5.2,15.4,7.8,27,7.8s20.6-2.6,27-7.8h0Z"/>
    <path class="st6" d="M1070.6,129.1c-9.1,7.6-13.7,17.3-13.7,28.9v78.1c0,10.6-4.1,18.2-12.4,22.7-8.3,4.6-21,6.8-38.3,6.8V112.5c0-12.3,4.1-21.8,12.2-28.5s20.2-10,36.3-10v21.8c-3.7,3.9-6.8,8.1-9.2,12.6l2.6,1.5c15.5-23.9,34.9-35.9,58.1-35.9s19.5,3,25.2,8.9c5.7,5.9,8.5,13.4,8.5,22.6s-1.8,12.9-5.6,18.1c-6.9-3.9-16.2-5.9-27.8-5.9s-26.8,3.8-35.9,11.5Z"/>
    <path class="st6" d="M1189.5,258.4c-10.5-4.8-18.9-11.8-25.3-21.1-6.4-9.2-9.6-20.4-9.6-33.5s3.4-24.4,10.4-33.8c6.9-9.5,16.1-16.7,27.6-21.6,11.5-4.9,24-7.4,37.6-7.4s21.4,1.7,30.2,5.2c8.8,3.5,16.9,8.5,24.6,15.2l1.8-2.2c-5.2-4.7-9.2-8-12.2-10v-4.8c0-9.4-3.4-16.8-10.2-22.4-6.8-5.6-16.3-8.3-28.7-8.3s-20.5,2-28.9,5.9c-8.4,3.9-15.2,9.8-20.3,17.4-5.9-1.5-10.9-4.2-15-8.3-4.1-4.1-6.1-8.6-6.1-13.5,0-7.6,3.3-14.6,10-20.9s15.7-11.2,27.2-14.8c11.5-3.6,24.1-5.4,37.9-5.4,26.9,0,47.6,6.2,62.2,18.5,14.6,12.3,21.8,29.1,21.8,50.3v89.9c0,11.6-3.8,20-11.3,25.2-7.5,5.2-19.4,7.8-35.7,7.8v-14.4c3.7-3.4,6.7-6.5,8.9-9.2l-1.8-1.9c-8.1,8.4-16.7,14.7-25.5,19-8.9,4.3-20.7,6.5-35.5,6.5s-23.4-2.4-33.8-7.2h0ZM1265.2,222.7c6.7-4.4,10-10.9,10-19.2s-3.4-14.6-10.2-19.2c-6.8-4.7-16-7-27.6-7s-18.6,2.4-24.6,7c-6.1,4.7-9.1,11.1-9.1,19.2s3,14.8,9.1,19.2,14.2,6.7,24.6,6.7,21.1-2.2,27.8-6.7h0Z"/>
  </g>
  <g>
    <path class="st5" d="M233.7,1.2h-28.1c-19.1,0-30.6,17.1-20.3,33.2l145,230.8"/>
    <path class="st1" d="M330.3,265.1s45.8-35.1,42.8-39.8L233.7,1.2"/>
    <path class="st0" d="M233.6,1.2h-30c-16.6,0-30,13.4-30,30v234"/>
    <path class="st2" d="M173.6,265.1h30c16.6,0,30-13.4,30-30V1.2l-60,263.9Z"/>
    <path class="st4" d="M390.3,1.2h-30c-16.6,0-30,13.4-30,30v234"/>
    <path class="st3" d="M330.3,265.1h30c16.6,0,30-13.4,30-30V1.2l-60,263.9Z"/>
  </g>
</svg>